<?xml version="1.0" standalone="no"?>
<!DOCTYPE svg PUBLIC "-//W3C//DTD SVG 20010904//EN"
 "http://www.w3.org/TR/2001/REC-SVG-20010904/DTD/svg10.dtd">
<svg version="1.0" xmlns="http://www.w3.org/2000/svg"
 width="1024.000000pt" height="1024.000000pt" viewBox="0 0 1024.000000 1024.000000"
 preserveAspectRatio="xMidYMid meet">
<metadata>
Created by potrace 1.11, written by Peter Selinger 2001-2013
</metadata>
<g transform="translate(0.000000,1024.000000) scale(0.100000,-0.100000)"
fill="#000000" stroke="none">
<path d="M5028 8594 c-2 -1 -16 -4 -33 -7 -34 -6 -57 -13 -100 -32 -16 -8 -70
-30 -120 -49 -49 -20 -103 -43 -118 -51 -16 -8 -33 -15 -38 -15 -6 0 -36 -12
-67 -26 -52 -24 -186 -79 -322 -134 -50 -20 -163 -68 -215 -90 -11 -5 -184
-77 -385 -160 -201 -83 -385 -160 -410 -172 -25 -11 -49 -21 -55 -22 -5 -2
-28 -10 -50 -20 -22 -9 -78 -33 -125 -52 -47 -19 -94 -39 -105 -44 -29 -14
-238 -101 -250 -104 -5 -1 -28 -10 -50 -20 -22 -10 -76 -33 -120 -51 -166 -68
-382 -158 -422 -176 -23 -11 -45 -19 -48 -19 -3 0 -25 -9 -49 -19 -23 -11 -65
-29 -93 -40 -28 -11 -70 -29 -94 -39 -24 -11 -123 -52 -219 -91 -96 -40 -184
-76 -195 -81 -11 -5 -72 -32 -136 -59 -228 -96 -325 -183 -392 -351 -14 -36
-29 -79 -34 -95 -4 -17 -9 -1121 -10 -2453 l-3 -2424 31 -29 30 -28 587 -1
587 0 35 29 35 29 1 1738 c0 957 4 1755 8 1774 35 150 168 287 321 330 75 21
5355 22 5430 1 145 -41 269 -160 311 -299 16 -53 18 -173 18 -1787 1 -1861 -1
-1780 52 -1804 18 -8 191 -11 609 -11 l584 1 30 28 31 29 -2 2429 -3 2428 -27
76 c-40 114 -64 153 -149 239 -72 74 -108 91 -659 319 -162 68 -308 129 -325
136 -16 7 -70 30 -120 50 -49 20 -106 44 -125 53 -19 9 -39 17 -45 18 -9 2
-267 110 -320 134 -11 4 -153 63 -315 130 -162 67 -308 127 -325 135 -16 7
-124 52 -240 99 -115 48 -219 91 -230 95 -11 5 -36 16 -55 24 -19 8 -222 93
-450 187 -228 95 -428 178 -445 185 -16 8 -82 35 -145 60 -63 26 -129 54 -147
62 -55 25 -144 41 -230 41 -45 -1 -84 -2 -85 -4z"/>
<path d="M2593 5112 c-31 -10 -63 -38 -64 -59 -1 -10 -3 -31 -4 -48 -2 -16 -5
-177 -9 -358 -7 -363 -7 -364 56 -386 22 -8 778 -11 2564 -11 l2533 0 30 30
30 31 1 372 0 372 -24 30 -24 30 -2534 2 c-1393 0 -2543 -2 -2555 -5z"/>
<path d="M2570 3804 c-60 -26 -60 -23 -60 -427 l0 -369 29 -29 c20 -19 40 -29
63 -30 178 -7 5040 -3 5061 4 15 5 36 20 47 34 19 25 20 41 20 395 l0 370 -29
29 c-16 16 -35 30 -43 30 -7 1 -1149 2 -2537 3 -1881 1 -2531 -2 -2551 -10z"/>
<path d="M2565 2498 c-55 -30 -54 -24 -55 -421 0 -239 3 -374 10 -387 29 -53
-138 -50 2609 -50 l2540 0 31 31 30 31 0 370 c-1 407 -1 406 -62 427 -44 16
-5075 15 -5103 -1z"/>
</g>
</svg>
